<svg version="1.1" xmlns="http://www.w3.org/2000/svg" xmlns:xlink="http://www.w3.org/1999/xlink" x="0px" y="0px" width="501.5px"
	 height="178.7px" viewBox="0 0 501.5 178.7" style="overflow:visible;enable-background:new 0 0 501.5 178.7;"
	 xml:space="preserve">
<style type="text/css">
	.st0{clip-path:url(#SVGID_2_);fill:#F0F0F0;}
	.st1{clip-path:url(#SVGID_4_);fill:#44444F;}
	.st2{clip-path:url(#SVGID_6_);fill:#F0F0F0;}
	.st3{clip-path:url(#SVGID_8_);fill:#F0F0F0;}
	.st4{clip-path:url(#SVGID_10_);fill:#F0F0F0;}
	.st5{clip-path:url(#SVGID_12_);fill:#F0F0F0;}
	.st6{clip-path:url(#SVGID_14_);fill:#F0F0F0;}
	.st7{clip-path:url(#SVGID_16_);fill:#44444F;}
	.st8{clip-path:url(#SVGID_18_);fill:#F0F0F0;}
	.st9{clip-path:url(#SVGID_20_);fill:#44444F;}
	.st10{clip-path:url(#SVGID_22_);fill:#F0F0F0;}
	.st11{clip-path:url(#SVGID_24_);fill:#F0F0F0;}
	.st12{clip-path:url(#SVGID_26_);fill:#F0F0F0;}
	.st13{clip-path:url(#SVGID_28_);fill:#F0F0F0;}
	.st14{clip-path:url(#SVGID_30_);fill:#F0F0F0;}
	.st15{clip-path:url(#SVGID_32_);fill:#44444F;}
</style>
<defs>
</defs>
<g>
	<defs>
		<path id="SVGID_1_" d="M41.1,109.6H65c6.2,0,9.7-3.3,9.7-9.5v-1c0-6.2-3.5-9.7-9.7-9.7H27.8C27.8,102.9,32.3,109.6,41.1,109.6
			L41.1,109.6z"/>
	</defs>
	<clipPath id="SVGID_2_">
		<use xlink:href="#SVGID_1_"  style="overflow:visible;"/>
	</clipPath>
	<rect x="22.8" y="84.4" class="st0" width="56.8" height="30.2"/>
</g>
<g>
	<defs>
		<path id="SVGID_3_" d="M5,14.7C5,8.5,8.3,5,14.5,5l0,0h3.6c6.2,0,9.7,3.5,9.7,9.7l0,0v58.7c0,0,0,0,0,0
			c0.1,24.1,4.8,36.2,14.1,36.2C7.1,109.6,5,95,5,72.9L5,14.7z"/>
	</defs>
	<clipPath id="SVGID_4_">
		<use xlink:href="#SVGID_3_"  style="overflow:visible;"/>
	</clipPath>
	<rect class="st1" width="46.9" height="114.6"/>
</g>
<g>
	<defs>
		<path id="SVGID_5_" d="M115.8,109.6c21.7,0,42.8-12.9,42.8-42.9c0-29.8-21.2-42.6-42.8-42.6c-21.5,0-42.6,12.9-42.6,42.6
			C73.2,96.7,94.1,109.6,115.8,109.6L115.8,109.6z M115.8,91.5c-12.3,0-20.8-9.1-20.8-24.9c0-15.6,8.5-24.7,20.8-24.7
			c12.3,0,20.8,9.2,20.8,24.7C136.6,82.4,128.2,91.5,115.8,91.5L115.8,91.5z"/>
	</defs>
	<clipPath id="SVGID_6_">
		<use xlink:href="#SVGID_5_"  style="overflow:visible;"/>
	</clipPath>
	<rect x="68.2" y="19.1" class="st2" width="95.4" height="95.5"/>
</g>
<g>
	<defs>
		<path id="SVGID_7_" d="M195.2,108.1h6.2c5.3,0,9-2.5,11-7.4l27.2-64.1c2.9-6.5-0.1-11.1-7.4-11.1h-3.8c-5.5,0-9.1,2.6-11.1,7.8
			l-19.1,50.1l-19.1-50.1c-2-5.2-5.6-7.8-11.1-7.8h-3.8c-7.1,0-10.1,4.5-7.2,11.1l26.9,64.1C186.1,105.8,189.9,108.1,195.2,108.1
			L195.2,108.1z"/>
	</defs>
	<clipPath id="SVGID_8_">
		<use xlink:href="#SVGID_7_"  style="overflow:visible;"/>
	</clipPath>
	<rect x="151" y="20.5" class="st3" width="94.7" height="92.6"/>
</g>
<g>
	<defs>
		<path id="SVGID_9_" d="M277.8,134.5h4c5.5,0,9.1-2.2,11.3-7.4l37.6-90.7c2.7-6.6-0.3-11.1-7.5-11.1h-3.8c-5.5,0-9.1,2.6-11,7.8
			l-19.2,50.7L270,33.1c-1.9-5.2-5.3-7.8-11-7.8h-3.9c-6.9,0-10.1,4.5-7.4,11.1l29.8,71.1l-7.4,17
			C267.5,130.5,270.7,134.5,277.8,134.5L277.8,134.5z"/>
	</defs>
	<clipPath id="SVGID_10_">
		<use xlink:href="#SVGID_9_"  style="overflow:visible;"/>
	</clipPath>
	<rect x="241.8" y="20.3" class="st4" width="94.9" height="119.2"/>
</g>
<g>
	<defs>
		<path id="SVGID_11_" d="M370.9,109.3c17.8,0,30.6-7.1,36.3-19.4c2.6-5.6,0.3-9.7-6.4-10.8l-1.2-0.1c-5.2-0.9-7.7,0.9-11,4.6
			c-3.9,4.9-9.5,7.7-16.6,7.7c-12.4,0-20.8-10-20.8-24.7c0-14.7,8.4-24.7,20.8-24.7c7.2,0,12.9,2.7,16.9,7.8c3.3,3.8,5.8,5.5,11,4.6
			l1.6-0.3c6.1-1,8.4-5.3,5.6-11.1c-5.9-12.1-18.3-18.9-36.3-18.9c-24,0-41.5,17.5-41.5,42.8C329.5,92.2,347.2,109.3,370.9,109.3
			L370.9,109.3z"/>
	</defs>
	<clipPath id="SVGID_12_">
		<use xlink:href="#SVGID_11_"  style="overflow:visible;"/>
	</clipPath>
	<rect x="324.5" y="18.9" class="st5" width="88.9" height="95.4"/>
</g>
<g>
	<defs>
		<path id="SVGID_13_" d="M447.8,109.4c11.6,0,22.7-5.8,26.9-15.6v5.8c0,5.2,3.5,8.1,9.5,8.1h2.7c6.2,0,9.5-3.3,9.5-9.5V34.8
			c0-6.2-3.3-9.5-9.5-9.5h-2.7c-6.1,0-9.5,3-9.5,8.4v6.1c-4.3-10.1-15.3-15.9-26.9-15.9c-20.7,0-36.1,14.9-36.1,42.6
			C411.7,94.4,427.3,109.4,447.8,109.4L447.8,109.4z M454.4,91.3c-12.6,0-20.9-9.4-20.9-24.9c0-15.3,8.5-24.7,20.8-24.7
			c12.6,0,20.9,9.5,20.9,24.7C475.2,81.9,466.9,91.3,454.4,91.3L454.4,91.3z"/>
	</defs>
	<clipPath id="SVGID_14_">
		<use xlink:href="#SVGID_13_"  style="overflow:visible;"/>
	</clipPath>
	<rect x="406.7" y="18.9" class="st6" width="94.8" height="95.5"/>
</g>
<g>
	<defs>
		<path id="SVGID_15_" d="M71.8,173.4l2.4-5.5h11.2l2.4,5.5h2.5L81,152.6h-2.2l-9.4,20.8H71.8L71.8,173.4z M84.6,165.8h-9.4
			l4.7-10.5L84.6,165.8L84.6,165.8z M108.4,173.4v-16.7l7.5,11h0.1l7.5-11.1v16.7h2.3v-20.6h-2.4L116,164l-7.5-11.3h-2.4v20.6H108.4
			L108.4,173.4z M158.4,173.4v-2.1h-12.7V164h11.3v-2.1h-11.3v-7h12.6v-2.1h-14.9v20.6H158.4L158.4,173.4z M202.3,173.7
			c1,0,2-0.1,2.8-0.4c0.9-0.3,1.6-0.7,2.2-1.2c0.6-0.5,1.1-1.1,1.5-1.8c0.4-0.7,0.5-1.5,0.5-2.4l0,0v-0.1c0-1.6-0.5-2.8-1.6-3.7
			s-2.8-1.6-5.1-2.1c-1.1-0.2-2.1-0.5-2.8-0.8c-0.7-0.3-1.3-0.6-1.7-0.9c-0.4-0.3-0.7-0.7-0.9-1.1c-0.2-0.4-0.2-0.8-0.2-1.3l0,0
			v-0.1c0-0.9,0.4-1.7,1.2-2.4c0.8-0.6,1.9-1,3.2-1c1.1,0,2.1,0.2,3.1,0.5s1.9,0.9,2.9,1.7l0,0l1.4-1.8c-1.1-0.8-2.2-1.5-3.3-1.9
			c-1.1-0.4-2.5-0.6-4-0.6c-1,0-1.9,0.1-2.7,0.4c-0.8,0.3-1.5,0.7-2.2,1.2s-1.1,1.1-1.4,1.8c-0.3,0.7-0.5,1.4-0.5,2.2l0,0v0.1
			c0,0.8,0.1,1.6,0.4,2.2c0.3,0.6,0.7,1.2,1.3,1.7c0.6,0.5,1.3,0.9,2.2,1.2c0.9,0.3,1.9,0.6,3.1,0.9c1.1,0.2,2,0.5,2.7,0.7
			c0.7,0.3,1.2,0.5,1.6,0.9c0.4,0.3,0.7,0.7,0.8,1c0.2,0.4,0.2,0.8,0.2,1.3l0,0v0.1c0,1-0.4,1.9-1.3,2.5c-0.8,0.7-2,1-3.3,1
			c-1.4,0-2.7-0.2-3.8-0.7s-2.2-1.2-3.3-2.2l0,0l-1.4,1.7c1.2,1.1,2.5,2,3.9,2.5C199.2,173.4,200.7,173.7,202.3,173.7L202.3,173.7z
			 M234,173.7c1.3,0,2.5-0.2,3.5-0.6c1.1-0.4,2-1,2.7-1.7c0.8-0.8,1.3-1.7,1.8-2.9c0.4-1.1,0.6-2.5,0.6-4l0,0v-11.8h-2.3v12
			c0,2.3-0.6,4-1.7,5.1c-1.1,1.1-2.6,1.7-4.5,1.7c-2,0-3.5-0.6-4.6-1.8c-1.1-1.2-1.7-2.9-1.7-5.2l0,0v-11.9h-2.3v12
			c0,1.5,0.2,2.7,0.6,3.9c0.4,1.1,1,2.1,1.8,2.8c0.8,0.8,1.7,1.3,2.7,1.7C231.6,173.5,232.7,173.7,234,173.7L234,173.7z
			 M260.4,173.4l2.4-5.5h11.2l2.4,5.5h2.5l-9.4-20.8h-2.2l-9.4,20.8H260.4L260.4,173.4z M273.2,165.8h-9.4l4.7-10.5L273.2,165.8
			L273.2,165.8z M324.6,173.7c0.9,0,1.8-0.1,2.6-0.3c0.8-0.2,1.5-0.4,2.2-0.7c0.7-0.3,1.3-0.7,1.9-1.1c0.6-0.4,1.1-0.9,1.7-1.5l0,0
			l-1.5-1.5c-1,0.9-2,1.7-3,2.2c-1,0.5-2.2,0.8-3.7,0.8c-1.1,0-2.2-0.2-3.2-0.7s-1.8-1-2.5-1.8s-1.3-1.7-1.7-2.7
			c-0.4-1-0.6-2.1-0.6-3.3l0,0V163c0-1.2,0.2-2.3,0.6-3.3c0.4-1,1-1.9,1.7-2.7s1.6-1.4,2.5-1.8c1-0.4,2-0.6,3.2-0.6
			c1.4,0,2.6,0.3,3.6,0.8c1,0.5,2,1.2,2.8,2l0,0l1.6-1.7c-0.5-0.5-1-0.9-1.6-1.3c-0.6-0.4-1.2-0.7-1.8-1c-0.6-0.3-1.4-0.5-2.1-0.7
			s-1.6-0.2-2.6-0.2c-1.5,0-2.9,0.3-4.2,0.8c-1.3,0.6-2.4,1.3-3.3,2.3c-0.9,1-1.6,2.1-2.2,3.4c-0.5,1.3-0.8,2.7-0.8,4.1l0,0v0.1
			c0,1.5,0.3,2.9,0.8,4.2c0.5,1.3,1.2,2.4,2.2,3.4c0.9,1,2,1.7,3.3,2.3C321.8,173.5,323.1,173.7,324.6,173.7L324.6,173.7z
			 M349.2,173.4l2.4-5.5h11.2l2.4,5.5h2.5l-9.4-20.8h-2.2l-9.4,20.8H349.2L349.2,173.4z M362,165.8h-9.4l4.7-10.5L362,165.8
			L362,165.8z M390.6,173.7c1,0,2-0.1,2.8-0.4c0.9-0.3,1.6-0.7,2.2-1.2c0.6-0.5,1.1-1.1,1.5-1.8c0.4-0.7,0.5-1.5,0.5-2.4l0,0v-0.1
			c0-1.6-0.5-2.8-1.6-3.7c-1.1-0.9-2.8-1.6-5.1-2.1c-1.1-0.2-2.1-0.5-2.8-0.8c-0.7-0.3-1.3-0.6-1.7-0.9c-0.4-0.3-0.7-0.7-0.9-1.1
			s-0.2-0.8-0.2-1.3l0,0v-0.1c0-0.9,0.4-1.7,1.2-2.4c0.8-0.6,1.9-1,3.2-1c1.1,0,2.1,0.2,3.1,0.5c1,0.4,1.9,0.9,2.9,1.7l0,0l1.4-1.8
			c-1.1-0.8-2.2-1.5-3.3-1.9c-1.1-0.4-2.5-0.6-4-0.6c-1,0-1.9,0.1-2.7,0.4c-0.8,0.3-1.5,0.7-2.2,1.2s-1.1,1.1-1.4,1.8
			c-0.3,0.7-0.5,1.4-0.5,2.2l0,0v0.1c0,0.8,0.1,1.6,0.4,2.2c0.3,0.6,0.7,1.2,1.3,1.7c0.6,0.5,1.3,0.9,2.2,1.2
			c0.9,0.3,1.9,0.6,3.1,0.9c1.1,0.2,2,0.5,2.7,0.7c0.7,0.3,1.2,0.5,1.6,0.9c0.4,0.3,0.7,0.7,0.8,1c0.2,0.4,0.2,0.8,0.2,1.3l0,0v0.1
			c0,1-0.4,1.9-1.3,2.5c-0.8,0.7-2,1-3.3,1c-1.4,0-2.7-0.2-3.8-0.7s-2.2-1.2-3.3-2.2l0,0l-1.4,1.7c1.2,1.1,2.5,2,3.9,2.5
			S389,173.7,390.6,173.7L390.6,173.7z M414.7,173.4l2.4-5.5h11.2l2.4,5.5h2.5l-9.4-20.8h-2.2l-9.4,20.8H414.7L414.7,173.4z
			 M427.4,165.8H418l4.7-10.5L427.4,165.8L427.4,165.8z"/>
	</defs>
	<clipPath id="SVGID_16_">
		<use xlink:href="#SVGID_15_"  style="overflow:visible;"/>
	</clipPath>
	<rect x="64.4" y="147.4" class="st7" width="373.9" height="31.4"/>
</g>
</svg>
